<?xml version="1.0" encoding="UTF-8"?><svg id="Layer_1" xmlns="http://www.w3.org/2000/svg" xmlns:xlink="http://www.w3.org/1999/xlink" viewBox="0 0 314.6 419.5"><defs><style>.cls-1{fill:none;}.cls-2{clip-path:url(#clippath);}.cls-3{fill:#fc4c50;}.cls-4{fill:#3f4d5a;}</style><clipPath id="clippath"><rect class="cls-1" x="2.2" y="0" width="311.6" height="419.5"/></clipPath></defs><g class="cls-2"><path class="cls-4" d="m65.2,290.1c-.4.6-.8,1-1.2,1.3-.4.3-.9.5-1.6.5-.6,0-1.2-.2-1.9-.6s-1.4-.8-2.3-1.2c-.8-.5-1.8-.9-2.9-1.2-1.1-.4-2.3-.6-3.7-.6-2.4,0-4.1.5-5.3,1.5s-1.8,2.4-1.8,4.1c0,1.1.4,2,1,2.7.7.7,1.6,1.3,2.7,1.9,1.1.5,2.4,1,3.9,1.5,1.4.4,2.9.9,4.5,1.5,1.6.5,3,1.2,4.5,1.9,1.4.7,2.7,1.7,3.9,2.8,1.1,1.1,2.1,2.5,2.7,4.1.7,1.6,1,3.6,1,5.9,0,2.5-.4,4.9-1.3,7.1s-2.1,4.1-3.8,5.7c-1.7,1.7-3.7,3-6.2,3.9-2.4.9-5.2,1.4-8.3,1.4-1.7,0-3.4-.2-5.2-.5-1.8-.4-3.5-.8-5.1-1.5-1.7-.6-3.2-1.4-4.7-2.3-1.4-.9-2.7-1.9-3.8-3l3.8-6c.3-.4.7-.8,1.2-1.1.5-.3,1-.4,1.6-.4.8,0,1.5.3,2.3.7.8.5,1.6,1,2.6,1.6s2.1,1.1,3.3,1.6,2.7.7,4.4.7c2.3,0,4.1-.5,5.4-1.5,1.3-1,1.9-2.6,1.9-4.8,0-1.3-.4-2.3-1-3.1-.7-.8-1.6-1.5-2.7-2-1.1-.5-2.4-1-3.9-1.4-1.4-.4-2.9-.8-4.4-1.3-1.6-.5-3-1.1-4.4-1.8-1.4-.7-2.7-1.7-3.9-2.8-1.1-1.2-2.1-2.6-2.7-4.3-.7-1.8-1-3.9-1-6.4,0-2.1.4-4,1.2-6s2-3.7,3.6-5.2c1.6-1.6,3.6-2.7,5.9-3.7,2.3-.9,5-1.3,8-1.3,1.7,0,3.3.2,4.9.4,1.6.3,3.1.7,4.5,1.2s2.7,1.1,4,1.9c1.2.7,2.3,1.5,3.3,2.4l-3,5.7Z"/><path class="cls-4" d="m93.1,294.1c2.9,0,5.6.5,8.1,1.4,2.4.9,4.5,2.3,6.3,4s3.1,3.8,4,6.3c1,2.5,1.4,5.2,1.4,8.3s-.5,5.9-1.4,8.4c-1,2.5-2.3,4.6-4,6.4-1.8,1.8-3.8,3.1-6.3,4-2.4.9-5.1,1.4-8.1,1.4s-5.7-.5-8.1-1.4-4.6-2.3-6.3-4c-1.8-1.8-3.1-3.9-4.1-6.4s-1.4-5.3-1.4-8.4.5-5.9,1.4-8.3c1-2.5,2.3-4.6,4.1-6.3,1.8-1.8,3.9-3.1,6.3-4,2.5-.9,5.2-1.4,8.1-1.4Zm0,31.5c2.7,0,4.7-.9,5.9-2.8,1.2-1.9,1.9-4.8,1.9-8.6s-.6-6.7-1.9-8.6c-1.2-1.9-3.3-2.8-5.9-2.8s-4.8.9-6.1,2.8c-1.3,1.9-1.9,4.8-1.9,8.6s.6,6.7,1.9,8.6c1.4,1.9,3.4,2.8,6.1,2.8Z"/><path class="cls-4" d="m157.8,302.7v19.4c0,.9.2,1.7.7,2.2.4.6,1.1.9,1.9.9.4,0,.8-.1,1.1-.2s.5-.2.8-.3c.3-.1.4-.2.6-.3.2-.1.4-.2.7-.2.4,0,.6.1.8.3.2.2.4.4.7.8l3.5,5.5c-1.5,1.1-3.2,2-5.1,2.5-1.9.6-3.8.8-5.8.8s-3.5-.3-4.9-.8-2.6-1.3-3.6-2.3-1.7-2.2-2.2-3.6-.8-3-.8-4.7v-20.1h-13.9v30.9h-11.6v-31l-2.5-.5c-.9-.2-1.6-.5-2.1-.9s-.8-1-.8-1.9v-4.6h5.5v-2.2c0-2.2.4-4.2,1.1-6.1.7-1.8,1.8-3.4,3.1-4.6,1.3-1.3,2.9-2.3,4.9-3,1.9-.7,4.1-1,6.6-1,.9,0,1.8.1,2.6.2s1.7.3,2.5.6l-.2,5.7c0,.4-.1.7-.3,1s-.4.5-.7.6c-.3.2-.6.3-.9.4-.3.1-.7.1-1,.1-1,0-2,.1-2.7.3-.8.2-1.4.6-2,1.1-.5.5-.9,1.2-1.2,2s-.4,1.9-.4,3.2v1.9h14.9l2.3-9.6c.3-1.2,1.1-1.8,2.5-1.8h6.1v11.4h9.7v8l-9.9-.1Z"/><path class="cls-4" d="m196.1,323.7c1.7,0,3.2-.3,4.6-.8,1.3-.6,2.5-1.3,3.4-2.4.9-1,1.7-2.3,2.1-3.8.5-1.5.7-3.3.7-5.2v-32.5h12.7v32.4c0,3.4-.6,6.4-1.7,9.3-1.1,2.8-2.6,5.2-4.7,7.2-2,2-4.5,3.6-7.4,4.7s-6.2,1.7-9.8,1.7-6.9-.6-9.8-1.7c-2.9-1.1-5.4-2.7-7.4-4.7s-3.6-4.5-4.7-7.2c-1.1-2.8-1.6-5.9-1.6-9.3v-32.4h12.7v32.4c0,1.9.3,3.7.7,5.2.5,1.5,1.2,2.8,2.1,3.9.9,1.1,2.1,1.9,3.4,2.4,1.5.6,3,.8,4.7.8Z"/><path class="cls-4" d="m237.5,298.9c.8-.7,1.6-1.3,2.3-2,.8-.6,1.7-1.1,2.6-1.5.9-.4,1.9-.7,2.9-1,1.1-.3,2.2-.4,3.5-.4,2.1,0,4,.4,5.6,1.1,1.7.7,3,1.8,4.1,3.1,1.1,1.3,2,2.9,2.5,4.7.6,1.8.9,3.8.9,5.9v24.7h-11.6v-24.7c0-1.9-.4-3.4-1.3-4.5-.9-1.1-2.2-1.6-3.9-1.6-1.3,0-2.5.3-3.6.8s-2.2,1.3-3.3,2.2v27.8h-11.6v-39h7.2c1.4,0,2.4.7,2.8,2l.9,2.4Z"/><path class="cls-4" d="m282.7,284c0,.9-.2,1.8-.6,2.6-.4.8-.9,1.6-1.6,2.1-.7.6-1.4,1.1-2.3,1.4-.9.4-1.8.6-2.7.6s-1.9-.2-2.7-.6c-.8-.4-1.6-.8-2.2-1.4s-1.1-1.3-1.5-2.1c-.4-.8-.6-1.7-.6-2.6s.2-1.9.6-2.7c.4-.8.9-1.6,1.5-2.2s1.3-1.1,2.2-1.4c.8-.4,1.7-.5,2.7-.5s1.9.2,2.7.5c.9.4,1.6.8,2.3,1.4.7.6,1.2,1.3,1.6,2.2s.6,1.8.6,2.7Zm-1.2,10.7v39h-11.6v-39h11.6Z"/><path class="cls-4" d="m100.6,374.2c0,3.9-.7,7.6-2.1,11-1.3,3.4-3.3,6.2-5.7,8.7-2.5,2.4-5.5,4.3-8.9,5.7-3.5,1.3-7.3,2.1-11.6,2.1h-21.3v-54.8h21.3c4.2,0,8.1.7,11.6,2.1s6.5,3.3,8.9,5.7c2.5,2.4,4.4,5.3,5.7,8.6,1.4,3.4,2.1,7,2.1,10.9Zm-13,0c0-2.7-.4-5.1-1-7.4-.7-2.2-1.7-4-3-5.5s-2.9-2.7-4.8-3.5-4.1-1.2-6.5-1.2h-8.5v35.2h8.5c2.4,0,4.6-.4,6.5-1.2,1.9-.8,3.5-2,4.8-3.5s2.3-3.4,3-5.5c.6-2.2,1-4.6,1-7.4Z"/><path class="cls-4" d="m119.3,352c0,.9-.2,1.8-.6,2.6-.4.8-.9,1.6-1.6,2.1-.7.6-1.4,1.1-2.3,1.4-.9.4-1.8.6-2.7.6s-1.9-.2-2.7-.6c-.8-.4-1.6-.8-2.2-1.4s-1.1-1.3-1.5-2.1c-.4-.8-.6-1.7-.6-2.6s.2-1.9.6-2.7c.4-.8.9-1.6,1.5-2.2s1.3-1.1,2.2-1.4c.8-.4,1.7-.5,2.7-.5s1.9.2,2.7.5c.9.4,1.6.8,2.3,1.4.7.6,1.2,1.3,1.6,2.2.4.9.6,1.7.6,2.7Zm-1.2,10.7v39h-11.6v-39h11.6Z"/><path class="cls-4" d="m161.5,363.9v4.2c0,.7-.2,1.2-.6,1.6-.4.4-1,.7-1.9.9l-2.8.6c.2.6.3,1.1.4,1.7.1.6.2,1.2.2,1.8,0,2-.4,3.7-1.2,5.3-.8,1.6-1.9,2.9-3.4,4-1.4,1.1-3.1,1.9-5,2.5s-4,.9-6.2.9c-.6,0-1.2,0-1.8-.1s-1.1-.1-1.7-.2c-.8.5-1.3,1.1-1.3,1.8s.4,1.1,1,1.4c.7.3,1.6.5,2.8.6,1.1.1,2.5.2,3.9.2,1.4.1,2.9.1,4.5.3,1.6.2,3,.4,4.5.7,1.4.3,2.8.8,3.9,1.6,1.1.7,2.1,1.7,2.8,2.9.7,1.2,1,2.7,1,4.7,0,1.8-.4,3.5-1.3,5.1-.8,1.7-2.1,3.2-3.8,4.5s-3.7,2.3-6.1,3.2c-2.4.8-5.2,1.2-8.3,1.2s-5.7-.3-7.9-.9-4-1.3-5.5-2.3c-1.4-.9-2.5-2-3.3-3.3-.7-1.2-1-2.5-1-3.8,0-1.7.5-3.2,1.5-4.3,1-1.1,2.4-2.1,4.2-2.8-.9-.6-1.7-1.3-2.3-2.2-.6-.9-.8-2.1-.8-3.5,0-.6.1-1.2.3-1.8.2-.6.5-1.2,1-1.9.4-.6,1-1.2,1.7-1.8.7-.6,1.4-1,2.3-1.5-2-1.1-3.6-2.5-4.8-4.2-1.2-1.8-1.8-3.8-1.8-6.2,0-2,.4-3.7,1.2-5.3.8-1.6,2-2.9,3.4-4s3.2-1.9,5.1-2.5c2-.6,4.1-.9,6.4-.9,3.3,0,6.2.6,8.8,1.9h11.9v-.1Zm-11.5,39.2c0-.9-.4-1.6-1.2-2s-1.9-.7-3.2-.9c-1.3-.2-2.8-.3-4.4-.3-1.7-.1-3.3-.2-4.9-.3-.7.5-1.3,1-1.8,1.7-.5.6-.7,1.3-.7,2.1,0,.6.1,1,.4,1.5.3.5.7.8,1.2,1.2.6.3,1.4.6,2.4.8,1,.2,2.3.3,3.8.3,1.7,0,3.1-.1,4.1-.3,1.1-.2,1.9-.5,2.6-.8.7-.4,1.1-.8,1.3-1.2.3-.7.4-1.2.4-1.8Zm-9-23c1.9,0,3.3-.5,4.2-1.5s1.3-2.2,1.3-3.7c0-1.6-.4-2.8-1.3-3.7-.9-.9-2.3-1.3-4.2-1.3s-3.3.5-4.2,1.3c-.9.9-1.3,2.1-1.3,3.7,0,.8.1,1.5.3,2.1s.6,1.2,1,1.7c.5.5,1,.8,1.7,1.1.7.2,1.6.3,2.5.3Z"/><path class="cls-4" d="m179.5,352c0,.9-.2,1.8-.6,2.6s-.9,1.6-1.6,2.1c-.7.6-1.4,1.1-2.3,1.4-.9.4-1.8.6-2.7.6s-1.9-.2-2.7-.6-1.6-.8-2.2-1.4c-.6-.6-1.1-1.3-1.5-2.1-.4-.8-.6-1.7-.6-2.6s.2-1.9.6-2.7.9-1.6,1.5-2.2,1.3-1.1,2.2-1.4c.8-.4,1.7-.5,2.7-.5s1.9.2,2.7.5c.9.4,1.6.8,2.3,1.4s1.2,1.3,1.6,2.2.6,1.7.6,2.7Zm-1.2,10.7v39h-11.6v-39h11.6Z"/><path class="cls-4" d="m200.4,402.3c-1.9,0-3.5-.3-4.9-.8s-2.6-1.3-3.6-2.3-1.7-2.2-2.2-3.6-.8-3-.8-4.7v-20.1h-3.3c-.6,0-1.1-.2-1.6-.6-.4-.4-.6-1-.6-1.7v-4.6l6.2-1.2,2.3-9.5c.3-1.2,1.1-1.8,2.5-1.8h6.1v11.4h9.7v8h-9.7v19.4c0,.9.2,1.7.7,2.2.4.6,1.1.9,1.9.9.4,0,.8-.1,1.1-.2s.5-.2.8-.3c.2-.1.4-.2.6-.3.2-.1.4-.2.7-.2.4,0,.6.1.8.3.2.2.4.4.7.8l3.5,5.5c-1.5,1.1-3.2,2-5.1,2.5-1.9.6-3.8.9-5.8.9Z"/><path class="cls-4" d="m214.4,368.1c2.3-2.1,5-3.6,7.8-4.7s5.9-1.5,9.2-1.5c2.3,0,4.4.4,6.4,1.1,1.9.8,3.5,1.8,4.8,3.2,1.3,1.3,2.3,3,3,4.9s1,3.9,1,6.2v24.3h-5.3c-1.1,0-1.9-.2-2.5-.5s-1-.9-1.4-1.9l-.8-2.1c-1,.8-1.9,1.6-2.8,2.2-.9.6-1.8,1.1-2.8,1.6-1,.4-2,.8-3.1,1s-2.3.3-3.6.3c-1.8,0-3.4-.2-4.9-.7-1.4-.5-2.7-1.1-3.7-2.1-1-.9-1.8-2-2.3-3.4-.6-1.3-.8-2.9-.8-4.7,0-1.4.4-2.8,1-4.2.7-1.5,1.9-2.7,3.6-3.9,1.7-1.2,4-2.2,7-3,2.9-.8,6.6-1.2,11.1-1.3v-1.7c0-2.3-.5-3.9-1.4-4.9s-2.3-1.5-4-1.5c-1.4,0-2.5.2-3.4.5s-1.7.6-2.3,1c-.7.4-1.3.7-2,1s-1.4.5-2.3.5c-.8,0-1.5-.2-2-.6-.6-.4-1-.9-1.3-1.5l-2.2-3.6Zm21,17.7c-2.3.1-4.2.3-5.7.6-1.5.3-2.7.7-3.6,1.1-.9.5-1.5,1-1.8,1.6-.4.6-.5,1.2-.5,1.9,0,1.3.4,2.3,1.1,2.8.7.5,1.8.8,3.2.8,1.5,0,2.8-.3,3.9-.8,1.1-.5,2.3-1.4,3.4-2.5v-5.5h0Z"/><path class="cls-4" d="m265.8,345.4v56.3h-11.6v-56.3h11.6Z"/><path class="cls-3" d="m306.9,78L167.2,8.8c-9.2-4.6-20-4.5-28.9.5L8.2,78.3c-8.4,4.5-8.3,16.6.3,20.8l43,21.8-1.7,83,102.8,48.4,99.9-48.2.9-81.5,53-23.5c9.1-3.9,9.4-16.7.5-21.1Zm-86,106.1l-68.5,33-70.4-33.1.9-46.9,59.7,30.4c3.4,1.7,7.1,2.6,10.8,2.6s7.3-.8,10.7-2.5l16.9-8.6c1.2,7.6,2.2,14.1,3.7,18.3,1.7,4.5,5.9,7.4,10.7,7.4.6,0,1.1-.1,1.7-.1,4.3-.6,7.9-3.9,9.3-8.1,5.5-16.7,11.1-32.2,15-42.1l-.5,49.7Zm.7-62.8l-.3-.6.3.5v.1Zm-6.3-12.6c-3.9,2-6.8,6.5-15.3,29.5-.8,2.2-1.7,4.5-2.4,6.7-1.9-9.8-4-15.1-9-17.8-3-1.6-6.5-1.6-9.6-.2l-.1.1h-.1l-25.3,12.7-99.2-50.4,98.3-54.3,107.9,54.1-45.2,19.6Z"/></g></svg>