<?xml version="1.0" encoding="utf-8"?>
<!-- Generator: Adobe Illustrator 27.5.0, SVG Export Plug-In . SVG Version: 6.00 Build 0)  -->
<svg version="1.1" id="Layer_1" xmlns="http://www.w3.org/2000/svg" xmlns:xlink="http://www.w3.org/1999/xlink" x="0px" y="0px"
	 viewBox="0 0 109.2 132.8" style="enable-background:new 0 0 109.2 132.8;" xml:space="preserve">
<style type="text/css">
	.st0{fill:#FFFFFF;}
	.st1{fill:#54546D;}
	.st2{fill:#9B5DC6;}
</style>
<path class="st1" d="M27.3,95.7c-0.1,0.2-0.2,0.3-0.3,0.4c-0.1,0.1-0.3,0.1-0.5,0.1s-0.4,0-0.5-0.2c-0.2-0.1-0.4-0.2-0.7-0.4  c-0.2-0.1-0.5-0.3-0.8-0.4c-0.3-0.1-0.7-0.2-1.1-0.2c-0.7,0-1.2,0.1-1.6,0.5c-0.3,0.3-0.5,0.7-0.5,1.2c0,0.3,0.1,0.6,0.3,0.8  c0.2,0.2,0.5,0.4,0.8,0.6c0.3,0.2,0.7,0.3,1.1,0.4c0.4,0.1,0.9,0.3,1.3,0.4s0.9,0.3,1.3,0.6c0.4,0.2,0.8,0.5,1.1,0.8  c0.3,0.3,0.6,0.7,0.8,1.2c0.2,0.5,0.3,1.1,0.3,1.7c0,0.8-0.1,1.5-0.4,2.1c-0.3,0.7-0.6,1.2-1.1,1.7s-1.1,0.9-1.8,1.1  c-0.7,0.3-1.5,0.4-2.4,0.4c-0.5,0-1,0-1.5-0.2c-0.5-0.1-1-0.2-1.5-0.4s-0.9-0.4-1.4-0.7c-0.4-0.3-0.8-0.6-1.1-0.9l1.1-1.8  c0.1-0.1,0.2-0.2,0.3-0.3s0.3-0.1,0.5-0.1s0.4,0.1,0.7,0.2c0.2,0.1,0.5,0.3,0.8,0.5s0.6,0.3,1,0.5c0.4,0.1,0.8,0.2,1.3,0.2  c0.7,0,1.2-0.1,1.6-0.5c0.4-0.3,0.6-0.8,0.6-1.4c0-0.4-0.1-0.7-0.3-0.9c-0.2-0.2-0.5-0.4-0.8-0.6c-0.3-0.2-0.7-0.3-1.1-0.4  c-0.4-0.1-0.9-0.2-1.3-0.4c-0.5-0.1-0.9-0.3-1.3-0.5s-0.8-0.5-1.1-0.8s-0.6-0.8-0.8-1.3S18,97.5,18,96.8c0-0.6,0.1-1.2,0.4-1.8  s0.6-1.1,1.1-1.5c0.5-0.5,1-0.8,1.7-1.1s1.5-0.4,2.3-0.4c0.5,0,1,0,1.4,0.1c0.5,0.1,0.9,0.2,1.3,0.3s0.8,0.3,1.2,0.5  c0.4,0.2,0.7,0.5,1,0.7L27.3,95.7z"/>
<path class="st1" d="M35.5,96.9c0.9,0,1.7,0.1,2.4,0.4c0.7,0.3,1.3,0.7,1.8,1.2s0.9,1.1,1.2,1.9c0.3,0.7,0.4,1.5,0.4,2.5  c0,0.9-0.1,1.7-0.4,2.5c-0.3,0.7-0.7,1.4-1.2,1.9s-1.1,0.9-1.8,1.2c-0.7,0.3-1.5,0.4-2.4,0.4s-1.7-0.1-2.4-0.4  c-0.7-0.3-1.3-0.7-1.9-1.2s-0.9-1.1-1.2-1.9c-0.3-0.7-0.4-1.6-0.4-2.5s0.1-1.7,0.4-2.5c0.3-0.7,0.7-1.4,1.2-1.9s1.1-0.9,1.9-1.2  C33.9,97,34.6,96.9,35.5,96.9z M35.5,106.2c0.8,0,1.4-0.3,1.7-0.8c0.4-0.6,0.5-1.4,0.5-2.6s-0.2-2-0.5-2.5c-0.4-0.6-1-0.8-1.7-0.8  c-0.8,0-1.4,0.3-1.8,0.8c-0.4,0.6-0.6,1.4-0.6,2.5s0.2,2,0.6,2.6C34.1,105.9,34.7,106.2,35.5,106.2z"/>
<path class="st1" d="M54.5,99.4v5.7c0,0.3,0.1,0.5,0.2,0.7s0.3,0.3,0.5,0.3c0.1,0,0.2,0,0.3,0c0.1,0,0.2,0,0.2-0.1  c0.1,0,0.1-0.1,0.2-0.1c0,0,0.1,0,0.2,0s0.2,0,0.2,0.1c0.1,0,0.1,0.1,0.2,0.2l1,1.6c-0.4,0.3-0.9,0.6-1.5,0.8  c-0.5,0.2-1.1,0.2-1.7,0.2c-0.5,0-1-0.1-1.4-0.2c-0.4-0.2-0.8-0.4-1-0.7c-0.3-0.3-0.5-0.7-0.6-1.1c-0.1-0.4-0.2-0.9-0.2-1.4v-6H47  v9.2h-3.4v-9.2l-0.7-0.2c-0.3-0.1-0.5-0.1-0.6-0.3c-0.2-0.1-0.2-0.3-0.2-0.6v-1.4h1.6v-0.7c0-0.7,0.1-1.3,0.3-1.8  c0.2-0.5,0.5-1,0.9-1.4s0.9-0.7,1.4-0.9c0.6-0.2,1.2-0.3,1.9-0.3c0.3,0,0.5,0,0.8,0c0.2,0,0.5,0.1,0.7,0.2l-0.1,1.7  c0,0.1,0,0.2-0.1,0.3c0,0.1-0.1,0.1-0.2,0.2c-0.1,0-0.2,0.1-0.3,0.1c-0.1,0-0.2,0-0.3,0c-0.3,0-0.6,0-0.8,0.1  c-0.2,0.1-0.4,0.2-0.6,0.3s-0.3,0.4-0.4,0.6c-0.1,0.2-0.1,0.6-0.1,0.9v0.5h4.4l0.7-2.8c0.1-0.4,0.3-0.5,0.7-0.5h1.8v3.4h2.8v2.4  h-2.7V99.4z"/>
<path class="st1" d="M65.7,105.6c0.5,0,1-0.1,1.3-0.2c0.4-0.2,0.7-0.4,1-0.7s0.5-0.7,0.6-1.1c0.1-0.5,0.2-1,0.2-1.5v-9.6h3.7v9.6  c0,1-0.2,1.9-0.5,2.7s-0.8,1.5-1.4,2.2c-0.6,0.6-1.3,1.1-2.2,1.4c-0.9,0.3-1.8,0.5-2.9,0.5s-2-0.2-2.9-0.5s-1.6-0.8-2.2-1.4  c-0.6-0.6-1-1.3-1.4-2.2c-0.3-0.8-0.5-1.7-0.5-2.7v-9.6h3.7v9.6c0,0.6,0.1,1.1,0.2,1.5c0.1,0.5,0.4,0.8,0.6,1.1  c0.3,0.3,0.6,0.6,1,0.7C64.7,105.5,65.2,105.6,65.7,105.6z"/>
<path class="st1" d="M77.8,98.3c0.2-0.2,0.5-0.4,0.7-0.6c0.2-0.2,0.5-0.3,0.8-0.5c0.3-0.1,0.6-0.2,0.9-0.3s0.6-0.1,1-0.1  c0.6,0,1.2,0.1,1.7,0.3s0.9,0.5,1.2,0.9c0.3,0.4,0.6,0.8,0.7,1.4c0.2,0.5,0.3,1.1,0.3,1.7v7.3h-3.4v-7.3c0-0.6-0.1-1-0.4-1.3  s-0.6-0.5-1.1-0.5c-0.4,0-0.7,0.1-1,0.2c-0.3,0.2-0.6,0.4-1,0.7v8.2h-3.4V96.9h2.1c0.4,0,0.7,0.2,0.8,0.6L77.8,98.3z"/>
<path class="st1" d="M91.1,93.9c0,0.3,0,0.5-0.2,0.8c-0.1,0.2-0.3,0.5-0.5,0.6c-0.2,0.2-0.4,0.3-0.7,0.4c-0.3,0.1-0.5,0.2-0.8,0.2  c-0.3,0-0.5,0-0.8-0.2c-0.2-0.1-0.5-0.2-0.6-0.4c-0.2-0.2-0.3-0.4-0.4-0.6c-0.1-0.2-0.2-0.5-0.2-0.8s0-0.5,0.2-0.8  c0.1-0.2,0.3-0.5,0.4-0.7c0.2-0.2,0.4-0.3,0.6-0.4c0.2-0.1,0.5-0.2,0.8-0.2c0.3,0,0.5,0,0.8,0.2c0.3,0.1,0.5,0.2,0.7,0.4  c0.2,0.2,0.3,0.4,0.5,0.7C91,93.3,91.1,93.6,91.1,93.9z M90.7,97v11.5h-3.4V97H90.7z"/>
<path class="st1" d="M24.9,124.5c0.1,0,0.2,0,0.3,0c0.1,0,0.2,0.1,0.3,0.2l1.5,1.6c-0.6,0.8-1.5,1.5-2.4,1.9c-1,0.4-2.1,0.7-3.4,0.7  c-1.2,0-2.3-0.2-3.3-0.6c-1-0.4-1.8-1-2.4-1.7c-0.7-0.7-1.2-1.6-1.5-2.6c-0.4-1-0.5-2.1-0.5-3.3s0.2-2.3,0.6-3.3  c0.4-1,0.9-1.9,1.6-2.6c0.7-0.7,1.5-1.3,2.5-1.7s2.1-0.6,3.2-0.6c0.6,0,1.2,0,1.7,0.2c0.5,0.1,1,0.3,1.5,0.4  c0.5,0.2,0.9,0.4,1.3,0.7s0.7,0.6,1,0.9l-1.3,1.7c-0.1,0.1-0.2,0.2-0.3,0.3c-0.1,0.1-0.3,0.1-0.5,0.1c-0.1,0-0.3,0-0.4-0.1  s-0.2-0.1-0.4-0.2c-0.1-0.1-0.3-0.2-0.4-0.3c-0.2-0.1-0.3-0.2-0.6-0.3c-0.2-0.1-0.5-0.2-0.8-0.2c-0.3-0.1-0.6-0.1-1-0.1  c-0.6,0-1.2,0.1-1.7,0.3s-1,0.6-1.3,1c-0.4,0.4-0.7,1-0.9,1.6s-0.3,1.4-0.3,2.2s0.1,1.6,0.3,2.2c0.2,0.7,0.5,1.2,0.9,1.6  c0.4,0.4,0.8,0.8,1.4,1c0.5,0.2,1.1,0.3,1.6,0.3c0.3,0,0.6,0,0.9,0s0.5-0.1,0.8-0.2c0.2-0.1,0.5-0.2,0.7-0.3s0.4-0.3,0.6-0.5  c0.1-0.1,0.2-0.1,0.3-0.2C24.7,124.5,24.8,124.5,24.9,124.5z"/>
<path class="st1" d="M31.3,118.9c0.4-0.6,0.8-1.1,1.2-1.5c0.5-0.4,1-0.5,1.6-0.5c0.5,0,0.9,0.1,1.3,0.4l-0.2,2.5  c0,0.2-0.1,0.3-0.2,0.3c-0.1,0.1-0.2,0.1-0.3,0.1c-0.1,0-0.1,0-0.2,0s-0.2,0-0.3,0c-0.1,0-0.2,0-0.3,0c-0.1,0-0.2,0-0.3,0  c-0.5,0-0.9,0.1-1.2,0.4c-0.3,0.3-0.5,0.6-0.8,1.1v7h-3.4v-11.5h2c0.2,0,0.3,0,0.4,0s0.2,0.1,0.3,0.1c0.1,0.1,0.1,0.1,0.2,0.2  c0,0.1,0.1,0.2,0.1,0.4L31.3,118.9z"/>
<path class="st1" d="M39.2,123.6c0.1,1,0.4,1.7,0.9,2.1c0.5,0.4,1.1,0.7,1.8,0.7c0.4,0,0.7,0,1-0.1s0.5-0.2,0.8-0.3  c0.2-0.1,0.4-0.2,0.6-0.3s0.4-0.1,0.6-0.1c0.3,0,0.5,0.1,0.6,0.3l1,1.2c-0.4,0.4-0.7,0.7-1.1,1c-0.4,0.3-0.8,0.5-1.3,0.6  c-0.4,0.1-0.9,0.2-1.3,0.3c-0.4,0-0.8,0.1-1.2,0.1c-0.8,0-1.5-0.1-2.3-0.4c-0.7-0.3-1.3-0.7-1.8-1.2c-0.5-0.5-0.9-1.2-1.2-1.9  c-0.3-0.8-0.5-1.7-0.5-2.7c0-0.8,0.1-1.5,0.4-2.2s0.6-1.3,1.1-1.8s1.1-0.9,1.8-1.2c0.7-0.3,1.5-0.5,2.4-0.5c0.8,0,1.5,0.1,2.1,0.4  c0.6,0.2,1.2,0.6,1.6,1c0.5,0.5,0.8,1,1.1,1.7c0.3,0.7,0.4,1.4,0.4,2.2c0,0.3,0,0.5,0,0.6s-0.1,0.3-0.1,0.4  c-0.1,0.1-0.1,0.2-0.2,0.2s-0.2,0-0.4,0L39.2,123.6L39.2,123.6z M43.4,121.6c0-0.3,0-0.5-0.1-0.8s-0.2-0.5-0.3-0.7  c-0.2-0.2-0.4-0.4-0.6-0.5c-0.3-0.1-0.6-0.2-0.9-0.2c-0.6,0-1.1,0.2-1.5,0.6c-0.4,0.4-0.6,0.9-0.7,1.6L43.4,121.6z"/>
<path class="st1" d="M47.9,118.8c0.7-0.6,1.5-1.1,2.3-1.4c0.8-0.3,1.7-0.5,2.7-0.5c0.7,0,1.3,0.1,1.9,0.3c0.5,0.2,1,0.5,1.4,0.9  s0.7,0.9,0.9,1.4c0.2,0.6,0.3,1.2,0.3,1.8v7.2h-1.6c-0.3,0-0.6,0-0.7-0.1c-0.2-0.1-0.3-0.3-0.4-0.6l-0.2-0.6  c-0.3,0.2-0.6,0.5-0.8,0.7c-0.3,0.2-0.5,0.3-0.8,0.5c-0.3,0.1-0.6,0.2-0.9,0.3s-0.7,0.1-1.1,0.1c-0.5,0-1-0.1-1.4-0.2  c-0.4-0.1-0.8-0.3-1.1-0.6c-0.3-0.3-0.5-0.6-0.7-1s-0.2-0.8-0.2-1.4c0-0.4,0.1-0.8,0.3-1.3c0.2-0.4,0.6-0.8,1.1-1.2s1.2-0.7,2-0.9  c0.9-0.2,1.9-0.4,3.2-0.4v-0.5c0-0.7-0.1-1.2-0.4-1.5s-0.7-0.5-1.2-0.5c-0.4,0-0.7,0-1,0.1s-0.5,0.2-0.7,0.3s-0.4,0.2-0.6,0.3  s-0.4,0.1-0.7,0.1c-0.2,0-0.4-0.1-0.6-0.2c-0.2-0.1-0.3-0.3-0.4-0.4L47.9,118.8z M54.1,124c-0.7,0-1.2,0.1-1.7,0.2  c-0.4,0.1-0.8,0.2-1,0.3c-0.3,0.1-0.4,0.3-0.5,0.5s-0.1,0.4-0.1,0.6c0,0.4,0.1,0.7,0.3,0.8c0.2,0.2,0.5,0.2,0.9,0.2s0.8-0.1,1.2-0.2  c0.3-0.2,0.7-0.4,1-0.8L54.1,124L54.1,124z"/>
<path class="st1" d="M71.7,128.7h-3.4v-9.2h-4.8v5.7c0,0.3,0.1,0.5,0.2,0.7s0.3,0.3,0.5,0.3c0.1,0,0.2,0,0.3,0c0.1,0,0.2,0,0.2-0.1  c0.1,0,0.1-0.1,0.2-0.1c0,0,0.1,0,0.2,0s0.2,0,0.2,0.1c0.1,0,0.1,0.1,0.2,0.2l1,1.6c-0.4,0.3-0.9,0.6-1.5,0.8  c-0.5,0.2-1.1,0.2-1.7,0.2c-0.5,0-1-0.1-1.4-0.2c-0.4-0.2-0.8-0.4-1-0.7c-0.3-0.3-0.5-0.7-0.6-1.1s-0.2-0.9-0.2-1.4v-6h-1  c-0.2,0-0.3-0.1-0.5-0.2c-0.1-0.1-0.2-0.3-0.2-0.5v-1.4l1.8-0.4l0.7-2.8c0.1-0.4,0.3-0.5,0.7-0.5h1.8v3.4h8.2L71.7,128.7L71.7,128.7  z M72.2,114c0,0.3,0,0.5-0.2,0.8c-0.1,0.2-0.3,0.5-0.5,0.6c-0.2,0.2-0.4,0.3-0.7,0.4c-0.3,0.1-0.5,0.2-0.8,0.2s-0.5,0-0.8-0.2  c-0.2-0.1-0.5-0.2-0.6-0.4c-0.2-0.2-0.3-0.4-0.4-0.6c-0.1-0.2-0.2-0.5-0.2-0.8s0-0.5,0.2-0.8c0.1-0.2,0.3-0.5,0.4-0.7  c0.2-0.2,0.4-0.3,0.6-0.4c0.2-0.1,0.5-0.2,0.8-0.2s0.5,0,0.8,0.2c0.3,0.1,0.5,0.2,0.7,0.4s0.3,0.4,0.5,0.7  C72.1,113.5,72.2,113.7,72.2,114z"/>
<path class="st1" d="M84.9,117.2l-4.4,11.5h-3.1L73,117.2h2.8c0.2,0,0.5,0.1,0.6,0.2c0.2,0.1,0.3,0.3,0.3,0.4l1.6,5.2  c0.1,0.4,0.3,0.8,0.4,1.2s0.2,0.8,0.3,1.2c0.2-0.8,0.4-1.6,0.7-2.4l1.6-5.2c0.1-0.2,0.2-0.3,0.3-0.4c0.2-0.1,0.4-0.2,0.6-0.2H84.9z"/>
<path class="st1" d="M88.4,123.6c0.1,1,0.4,1.7,0.9,2.1c0.5,0.4,1.1,0.7,1.8,0.7c0.4,0,0.7,0,1-0.1c0.3-0.1,0.5-0.2,0.8-0.3  c0.2-0.1,0.4-0.2,0.6-0.3c0.2-0.1,0.4-0.1,0.6-0.1c0.3,0,0.5,0.1,0.6,0.3l1,1.2c-0.4,0.4-0.7,0.7-1.1,1c-0.4,0.3-0.8,0.5-1.3,0.6  c-0.4,0.1-0.9,0.2-1.3,0.3c-0.4,0-0.8,0.1-1.2,0.1c-0.8,0-1.5-0.1-2.3-0.4c-0.7-0.3-1.3-0.7-1.8-1.2c-0.5-0.5-0.9-1.2-1.2-1.9  c-0.3-0.8-0.5-1.7-0.5-2.7c0-0.8,0.1-1.5,0.4-2.2s0.6-1.3,1.1-1.8s1.1-0.9,1.8-1.2c0.7-0.3,1.5-0.5,2.4-0.5c0.8,0,1.5,0.1,2.1,0.4  c0.6,0.2,1.2,0.6,1.6,1c0.5,0.5,0.8,1,1.1,1.7c0.3,0.7,0.4,1.4,0.4,2.2c0,0.3,0,0.5,0,0.6c0,0.2-0.1,0.3-0.1,0.4  c-0.1,0.1-0.1,0.2-0.2,0.2c-0.1,0-0.2,0-0.4,0L88.4,123.6L88.4,123.6z M92.7,121.6c0-0.3,0-0.5-0.1-0.8s-0.2-0.5-0.3-0.7  c-0.2-0.2-0.4-0.4-0.6-0.5c-0.3-0.1-0.6-0.2-0.9-0.2c-0.6,0-1.1,0.2-1.5,0.6c-0.4,0.4-0.6,0.9-0.7,1.6L92.7,121.6z"/>
<path class="st2" d="M102.4,54.1c-0.8-2.5-3.1-4.5-5.8-4.6l2.1-14.2l7.9-4.1L54.3,3.1L2,31.2l20.4,10.5v25.6l31.9,16l31.9-16V41.7  l6.6-3.4l1.8,11.4c-0.6,0.1-1.2,0.4-1.8,0.7c-3,1.8-4.1,5.8-2.3,8.9c0.3,0.7,0.5,1.4,0.5,2.1c0,1.7-0.9,3.3-2.4,4.2  c0.5,0.3,1.1,0.6,1.7,0.8s1.2,0.3,1.9,0.4c0.2,0,0.3,0,0.5,0c0.3,0,0.5,0,0.8,0c0.9,0,1.7-0.1,2.6-0.4c4.1-1.2,6.7-5,6.7-9.1  c0-0.9-0.1-1.7-0.4-2.6C102.6,54.5,102.5,54.3,102.4,54.1z M76.5,61.1l-22,11.1l0,0l0,0l-22-11.1V46.7l22,11.4l22-11.4V61.1z   M54.4,46.9L23.8,31.1l30.6-17l30.6,17L54.4,46.9z"/>
</svg>
